<?xml version="1.0" encoding="UTF-8"?>
<svg width="105px" height="105px" viewBox="0 0 105 105" version="1.1" xmlns="http://www.w3.org/2000/svg" xmlns:xlink="http://www.w3.org/1999/xlink">
    <!-- Generator: Sketch 64 (93537) - https://sketch.com -->
    <title>logo</title>
    <desc>Created with Sketch.</desc>
    <g id="Page-2" stroke="none" stroke-width="1" fill="none" fill-rule="evenodd">
        <g id="Artboard" transform="translate(-135.000000, -160.000000)" fill="#FFFFFF" fill-rule="nonzero">
            <g id="logo" transform="translate(135.000000, 160.000000)">
                <path d="M65.1509259,31.2649622 L31.4496287,64.919154 C31.0150803,64.077153 30.6227616,63.1997854 30.271309,62.2897714 C29.0943519,59.2319071 28.5058734,55.987687 28.5058734,52.5611922 C28.5058734,49.1319768 29.0943519,45.8891171 30.271309,42.8312527 C31.4496287,39.772028 33.0815671,37.1181609 35.1684862,34.8655704 C37.2554061,32.6143401 39.7632512,30.8337598 42.6906596,29.5224692 C45.61943,28.2125389 48.8329047,27.5568936 52.332445,27.5568936 C55.8333478,27.5568936 59.0645312,28.228862 62.0246332,29.5741591 C63.1253061,30.0733745 64.1674034,30.6365222 65.1509259,31.2649622 Z M62.1772016,75.7998733 C59.2484305,77.1111638 56.0349565,77.7654492 52.5354155,77.7654492 C49.0345134,77.7654492 45.80333,77.093481 42.8418654,75.7495437 C41.7425551,75.2489681 40.7004578,74.6858205 39.7182979,74.0560201 L73.4182326,40.4045489 C73.8527801,41.2451896 74.2450997,42.121197 74.5965515,43.0325711 C75.7735093,46.0904356 76.3619879,49.3346555 76.3619879,52.7625107 C76.3619879,56.1903658 75.7735093,59.4332255 74.5965515,62.4924502 C73.4182326,65.5503145 71.7862941,68.2041818 69.699375,70.455412 C67.6124552,72.7066422 65.1059727,74.4885828 62.1772016,75.7998733 Z M67.2759875,86.2344275 C71.7862941,84.2851754 75.6904136,81.647631 78.9883459,78.3190745 C82.2862782,74.9932393 84.8431629,71.1110573 86.6603633,66.6752496 C88.4789255,62.2394418 89.3875249,57.5343026 89.3875249,52.5611922 C89.3875249,47.5867215 88.4789255,42.8815823 86.6603633,38.4444143 C85.5828479,35.8136716 84.2560462,33.3842472 82.6813215,31.1547812 L104.600787,9.26683814 L95.8907586,0.569335938 L73.9045449,22.5239317 C71.9306891,21.1799949 69.7879189,20.0183328 67.4775954,19.0375854 C62.9672888,17.1223394 57.9870159,16.1633562 52.5354155,16.1633562 C47.0824533,16.1633562 42.1021811,17.1386626 37.5918737,19.087915 C33.0815671,21.0371675 29.1774476,23.6747116 25.8795153,27.0019075 C22.581583,30.3291034 20.0233357,34.2112853 18.2061361,38.6470931 C16.3889358,43.0829008 15.4803356,47.78804 15.4803356,52.7625107 C15.4803356,57.7356211 16.3889358,62.4394001 18.2061361,66.876568 C19.2850133,69.5086711 20.6118143,71.9380953 22.1865398,74.1689217 L0.268436914,96.054144 L8.97846451,104.751646 L30.9633163,82.7984108 C32.9371714,84.142348 35.0799423,85.3040096 37.390265,86.2847568 C41.9005724,88.2000029 46.8808446,89.157626 52.332445,89.157626 C57.7854079,89.157626 62.7656801,88.1823201 67.2759875,86.2344275 Z" id="Fill-8"></path>
            </g>
        </g>
    </g>
</svg>