<?xml version="1.0" encoding="UTF-8"?>
<svg width="64px" height="64px" viewBox="0 0 64 64" version="1.1" xmlns="http://www.w3.org/2000/svg" xmlns:xlink="http://www.w3.org/1999/xlink">
    <!-- Generator: Sketch 64 (93537) - https://sketch.com -->
    <title>Claim Rewards</title>
    <desc>Created with Sketch.</desc>
    <g id="Page-1" stroke="none" stroke-width="1" fill="none" fill-rule="evenodd">
        <g id="Claim-Rewards" fill-rule="nonzero">
            <circle id="Oval" fill-opacity="0.2" fill="#C8C8C8" cx="32" cy="32" r="32"></circle>
            <path d="M25,44 L39,44 C41.209139,44 43,42.209139 43,40 L43,25 C43,24.4477153 42.5522847,24 42,24 C41.4477153,24 41,24.4477153 41,25 L41,40 C41,41.1045695 40.1045695,42 39,42 L25,42 C23.8954305,42 23,41.1045695 23,40 L23,25 C23,24.4477153 22.5522847,24 22,24 C21.4477153,24 21,24.4477153 21,25 L21,40 C21,42.209139 22.790861,44 25,44 Z" id="Path" fill="#324176"></path>
            <path d="M47,20 L17,20 C16.4477153,20 16,20.4477153 16,21 C16,21.5522847 16.4477153,22 17,22 L47,22 C47.5522847,22 48,21.5522847 48,21 C48,20.4477153 47.5522847,20 47,20 Z" id="Path" fill="#4289FA"></path>
            <path d="M30.48,40 L33.48,40 C36.5208184,40 38.9889825,37.5407984 39,34.5 L39,31.5 C38.9890306,28.4669892 36.5330108,26.0109694 33.5,26 L30.5,26 C27.4647165,26.0055037 25.0055037,28.4647165 25,31.5 L25,34.5 C25.0108819,37.5252572 27.4548025,39.9780973 30.48,40 Z M32,31 C33.1045695,31 34,31.8954305 34,33 C34,34.1045695 33.1045695,35 32,35 C30.8954305,35 30,34.1045695 30,33 C30,31.8954305 30.8954305,31 32,31 Z" id="Shape" fill="#F67F6F"></path>
        </g>
    </g>
</svg>