<?xml version="1.0" encoding="UTF-8"?>
<svg width="64px" height="64px" viewBox="0 0 64 64" version="1.1" xmlns="http://www.w3.org/2000/svg" xmlns:xlink="http://www.w3.org/1999/xlink">
    <!-- Generator: Sketch 64 (93537) - https://sketch.com -->
    <title>Deposit</title>
    <desc>Created with Sketch.</desc>
    <g id="Page-1" stroke="none" stroke-width="1" fill="none" fill-rule="evenodd">
        <g id="Deposit" fill-rule="nonzero">
            <circle id="Oval" fill-opacity="0.2" fill="#C8C8C8" cx="32" cy="32" r="32"></circle>
            <path d="M25,44 L39,44 C41.209139,44 43,42.209139 43,40 L43,25 C43,24.4477153 42.5522847,24 42,24 C41.4477153,24 41,24.4477153 41,25 L41,40 C41,41.1045695 40.1045695,42 39,42 L25,42 C23.8954305,42 23,41.1045695 23,40 L23,25 C23,24.4477153 22.5522847,24 22,24 C21.4477153,24 21,24.4477153 21,25 L21,40 C21,42.209139 22.790861,44 25,44 Z" id="Path" fill="#324176"></path>
            <path d="M27.73,29.24 C27.9177666,29.4293127 28.1733625,29.5357983 28.44,29.5357983 C28.7066375,29.5357983 28.9622334,29.4293127 29.15,29.24 L31,27.41 L31,39 C31,39.5522847 31.4477153,40 32,40 C32.5522847,40 33,39.5522847 33,39 L33,27.41 L34.83,29.24 C35.2267603,29.5797768 35.8181942,29.5569323 36.1875632,29.1875632 C36.5569323,28.8181942 36.5797768,28.2267603 36.24,27.83 L32.7,24.29 C32.3099625,23.9022764 31.6800375,23.9022764 31.29,24.29 L27.75,27.83 C27.3566893,28.2145144 27.3477535,28.8444848 27.73,29.24 L27.73,29.24 Z" id="Path" fill="#4289FA"></path>
            <path d="M47,20 L17,20 C16.4477153,20 16,20.4477153 16,21 C16,21.5522847 16.4477153,22 17,22 L47,22 C47.5522847,22 48,21.5522847 48,21 C48,20.4477153 47.5522847,20 47,20 Z" id="Path" fill="#324176"></path>
        </g>
    </g>
</svg>