<?xml version="1.0" encoding="UTF-8"?>
<svg width="64px" height="64px" viewBox="0 0 64 64" version="1.1" xmlns="http://www.w3.org/2000/svg" xmlns:xlink="http://www.w3.org/1999/xlink">
    <!-- Generator: Sketch 64 (93537) - https://sketch.com -->
    <title>Receive</title>
    <desc>Created with Sketch.</desc>
    <g id="Page-1" stroke="none" stroke-width="1" fill="none" fill-rule="evenodd">
        <g id="Receive" fill-rule="nonzero">
            <circle id="Oval" fill-opacity="0.2" fill="#C8C8C8" cx="32" cy="32" r="32"></circle>
            <path d="M34,16 L30,16 C29.4477153,16 29,16.4477153 29,17 C29,17.5522847 29.4477153,18 30,18 L34,18 C34.5522847,18 35,17.5522847 35,17 C35,16.4477153 34.5522847,16 34,16 Z" id="Path" fill="#4289FA"></path>
            <path d="M21,33 L17,33 C16.4477153,33 16,33.4477153 16,34 C16,34.5522847 16.4477153,35 17,35 L21,35 C21.5522847,35 22,34.5522847 22,34 C22,33.4477153 21.5522847,33 21,33 Z" id="Path" fill="#4289FA"></path>
            <path d="M35,47 L35,42 C35,41.4477153 34.5522847,41 34,41 C33.4477153,41 33,41.4477153 33,42 L33,47 C33,47.5522847 33.4477153,48 34,48 C34.5522847,48 35,47.5522847 35,47 Z" id="Path" fill="#4289FA"></path>
            <path d="M35,30 L35,21 C35,20.4477153 34.5522847,20 34,20 C33.4477153,20 33,20.4477153 33,21 L33,30 C33,30.5522847 33.4477153,31 34,31 C34.5522847,31 35,30.5522847 35,30 Z" id="Path" fill="#4289FA"></path>
            <path d="M48,30 L48,30 C48,29.4477153 47.5522847,29 47,29 L38,29 C37.4477153,29 37,29.4477153 37,30 C37,30.5522847 37.4477153,31 38,31 L46,31 L46,34 C46,34.5522847 46.4477153,35 47,35 C47.5522847,35 48,34.5522847 48,34 L48,30 Z" id="Path" fill="#4289FA"></path>
            <path d="M30,37 L30,37 C29.4477153,37 29,37.4477153 29,38 L29,47 C29,47.5522847 29.4477153,48 30,48 C30.5522847,48 31,47.5522847 31,47 L31,39 L34,39 C34.5522847,39 35,38.5522847 35,38 C35,37.4477153 34.5522847,37 34,37 L30,37 Z" id="Path" fill="#4289FA"></path>
            <path d="M25,35 L43,35 C43.5522847,35 44,34.5522847 44,34 C44,33.4477153 43.5522847,33 43,33 L25,33 C24.4477153,33 24,33.4477153 24,34 C24,34.5522847 24.4477153,35 25,35 Z" id="Path" fill="#4289FA"></path>
            <path d="M30,20 C29.4477153,20 29,20.4477153 29,21 L29,29 L17,29 C16.4477153,29 16,29.4477153 16,30 C16,30.5522847 16.4477153,31 17,31 L30,31 C30.4012802,30.999673 30.7635008,30.7595049 30.92,30.39 C30.9293064,30.3270085 30.9293064,30.2629915 30.92,30.2 C30.9247007,30.1334162 30.9247007,30.0665838 30.92,30 L30.92,21 C30.9216745,20.4775063 30.5208219,20.041797 30,20 Z" id="Path" fill="#4289FA"></path>
            <path d="M44,18 C45.1045695,18 46,18.8954305 46,20 L46,23 C46,24.1045695 45.1045695,25 44,25 L41,25 C39.8954305,25 39,24.1045695 39,23 L39,20 C39,18.8954305 39.8954305,18 41,18 L44,18 M44,16 L41,16 C38.790861,16 37,17.790861 37,20 L37,23 C37,25.209139 38.790861,27 41,27 L44,27 C46.209139,27 48,25.209139 48,23 L48,20 C48,17.790861 46.209139,16 44,16 Z" id="Shape" fill="#324176"></path>
            <path d="M44,39 C45.1045695,39 46,39.8954305 46,41 L46,44 C46,45.1045695 45.1045695,46 44,46 L41,46 C39.8954305,46 39,45.1045695 39,44 L39,41 C39,39.8954305 39.8954305,39 41,39 L44,39 M44,37 L41,37 C38.790861,37 37,38.790861 37,41 L37,44 C37,46.209139 38.790861,48 41,48 L44,48 C46.209139,48 48,46.209139 48,44 L48,41 C48,38.790861 46.209139,37 44,37 Z" id="Shape" fill="#324176"></path>
            <path d="M23,18 C24.1045695,18 25,18.8954305 25,20 L25,23 C25,24.1045695 24.1045695,25 23,25 L20,25 C18.8954305,25 18,24.1045695 18,23 L18,20 C18,18.8954305 18.8954305,18 20,18 L23,18 M23,16 L20,16 C17.790861,16 16,17.790861 16,20 L16,23 C16,25.209139 17.790861,27 20,27 L23,27 C25.209139,27 27,25.209139 27,23 L27,20 C27,17.790861 25.209139,16 23,16 Z" id="Shape" fill="#324176"></path>
            <path d="M22.68,37 L20.32,37 C17.9364111,37.0054985 16.0054985,38.9364111 16,41.32 L16,43.68 C16.0054985,46.0635889 17.9364111,47.9945015 20.32,48 L22.68,48 C25.0635889,47.9945015 26.9945015,46.0635889 27,43.68 L27,41.32 C26.9945015,38.9364111 25.0635889,37.0054985 22.68,37 L22.68,37 Z M21.5,44 C20.6715729,44 20,43.3284271 20,42.5 C20,41.6715729 20.6715729,41 21.5,41 C22.3284271,41 23,41.6715729 23,42.5 C23,43.3284271 22.3284271,44 21.5,44 Z" id="Shape" fill="#F67F70"></path>
        </g>
    </g>
</svg>