<?xml version="1.0" encoding="UTF-8"?>
<svg width="64px" height="64px" viewBox="0 0 64 64" version="1.1" xmlns="http://www.w3.org/2000/svg" xmlns:xlink="http://www.w3.org/1999/xlink">
    <!-- Generator: Sketch 64 (93537) - https://sketch.com -->
    <title>Restake</title>
    <desc>Created with Sketch.</desc>
    <g id="Page-1" stroke="none" stroke-width="1" fill="none" fill-rule="evenodd">
        <g id="Restake" fill-rule="nonzero">
            <circle id="Oval" fill-opacity="0.2" fill="#C8C8C8" cx="32" cy="32" r="32"></circle>
            <path d="M20,48 L27,48 C29.209139,48 31,46.209139 31,44 L31,35 C31,34.4477153 30.5522847,34 30,34 C29.4477153,34 29,34.4477153 29,35 L29,44 C29,45.1045695 28.1045695,46 27,46 L20,46 C18.8954305,46 18,45.1045695 18,44 L18,35 C18,34.4477153 17.5522847,34 17,34 C16.4477153,34 16,34.4477153 16,35 L16,44 C16,46.209139 17.790861,48 20,48 Z" id="Path" fill="#4289FA"></path>
            <path d="M37,48 L44,48 C46.209139,48 48,46.209139 48,44 L48,35 C48,34.4477153 47.5522847,34 47,34 C46.4477153,34 46,34.4477153 46,35 L46,44 C46,45.1045695 45.1045695,46 44,46 L37,46 C35.8954305,46 35,45.1045695 35,44 L35,35 C35,34.4477153 34.5522847,34 34,34 C33.4477153,34 33,34.4477153 33,35 L33,44 C33,46.209139 34.790861,48 37,48 Z" id="Path" fill="#324176"></path>
            <path d="M41.36,36 L39.64,36 C37.9081048,36.0054894 36.5054894,37.4081048 36.5,39.14 L36.5,40.86 C36.5054894,42.5918952 37.9081048,43.9945106 39.64,44 L41.36,44 C43.0918952,43.9945106 44.4945106,42.5918952 44.5,40.86 L44.5,39.14 C44.4945106,37.4081048 43.0918952,36.0054894 41.36,36 Z M40.5,41.14 C39.8703954,41.14 39.36,40.6296046 39.36,40 C39.36,39.3703954 39.8703954,38.86 40.5,38.86 C41.1296046,38.86 41.64,39.3703954 41.64,40 C41.64,40.6296046 41.1296046,41.14 40.5,41.14 Z" id="Shape" fill="#F67F70"></path>
            <path d="M44.74,26.76 C44.3499625,26.3722764 43.7200375,26.3722764 43.33,26.76 L41.5,28.59 L41.5,25.5 L41.5,25.5 C41.5,20.2532949 37.2467051,16 32,16 C26.7532949,16 22.5,20.2532949 22.5,25.5 L22.5,25.5 L22.5,31 C22.5,31.5522847 22.9477153,32 23.5,32 C24.0522847,32 24.5,31.5522847 24.5,31 L24.5,25.5 L24.5,25.5 C24.5,21.3578644 27.8578644,18 32,18 C36.1421356,18 39.5,21.3578644 39.5,25.5 L39.5,25.5 L39.5,28.59 L37.67,26.76 C37.2732397,26.4202232 36.6818058,26.4430677 36.3124368,26.8124368 C35.9430677,27.1818058 35.9202232,27.7732397 36.26,28.17 L39.79,31.71 C39.9777666,31.8993127 40.2333625,32.0057983 40.5,32.0057983 C40.7666375,32.0057983 41.0222334,31.8993127 41.21,31.71 L44.74,28.17 C45.1277236,27.7799625 45.1277236,27.1500375 44.74,26.76 Z" id="Path" fill="#4289FA"></path>
        </g>
    </g>
</svg>