<?xml version="1.0" encoding="UTF-8"?>
<svg width="64px" height="64px" viewBox="0 0 64 64" version="1.1" xmlns="http://www.w3.org/2000/svg" xmlns:xlink="http://www.w3.org/1999/xlink">
    <!-- Generator: Sketch 64 (93537) - https://sketch.com -->
    <title>Stake</title>
    <desc>Created with Sketch.</desc>
    <g id="Page-1" stroke="none" stroke-width="1" fill="none" fill-rule="evenodd">
        <g id="Stake" fill-rule="nonzero">
            <circle id="Oval" fill-opacity="0.2" fill="#C8C8C8" cx="32" cy="32" r="32"></circle>
            <path d="M30.5,44 L33.5,44 C36.5330108,43.9890306 38.9890306,41.5330108 39,38.5 L39,35.5 C38.9890306,32.4669892 36.5330108,30.0109694 33.5,30 L30.5,30 C27.4669892,30.0109694 25.0109694,32.4669892 25,35.5 L25,38.5 C25.0109694,41.5330108 27.4669892,43.9890306 30.5,44 L30.5,44 Z M32,35 C33.1045695,35 34,35.8954305 34,37 C34,38.1045695 33.1045695,39 32,39 C30.8954305,39 30,38.1045695 30,37 C30,35.8954305 30.8954305,35 32,35 Z" id="Shape" fill="#F67F70"></path>
            <path d="M25,48 L39,48 C41.209139,48 43,46.209139 43,44 L43,29 C43,28.4477153 42.5522847,28 42,28 C41.4477153,28 41,28.4477153 41,29 L41,44 C41,45.1045695 40.1045695,46 39,46 L25,46 C23.8954305,46 23,45.1045695 23,44 L23,29 C23,28.4477153 22.5522847,28 22,28 C21.4477153,28 21,28.4477153 21,29 L21,44 C21,46.209139 22.790861,48 25,48 Z" id="Path" fill="#324176"></path>
            <path d="M36.24,22.76 C35.8499625,22.3722764 35.2200375,22.3722764 34.83,22.76 L33,24.59 L33,17 C33,16.4477153 32.5522847,16 32,16 C31.4477153,16 31,16.4477153 31,17 L31,24.59 L29.17,22.76 C28.7732397,22.4202232 28.1818058,22.4430677 27.8124368,22.8124368 C27.4430677,23.1818058 27.4202232,23.7732397 27.76,24.17 L31.29,27.71 C31.4777666,27.8993127 31.7333625,28.0057983 32,28.0057983 C32.2666375,28.0057983 32.5222334,27.8993127 32.71,27.71 L36.24,24.17 C36.6277236,23.7799625 36.6277236,23.1500375 36.24,22.76 Z" id="Path" fill="#4289FA"></path>
        </g>
    </g>
</svg>