<?xml version="1.0" encoding="UTF-8"?>
<svg width="64px" height="64px" viewBox="0 0 64 64" version="1.1" xmlns="http://www.w3.org/2000/svg" xmlns:xlink="http://www.w3.org/1999/xlink">
    <!-- Generator: Sketch 64 (93537) - https://sketch.com -->
    <title>Unstake</title>
    <desc>Created with Sketch.</desc>
    <g id="Page-1" stroke="none" stroke-width="1" fill="none" fill-rule="evenodd">
        <g id="Unstake" fill-rule="nonzero">
            <circle id="Oval" fill-opacity="0.2" fill="#C8C8C8" cx="32" cy="32" r="32"></circle>
            <path d="M33.5,16 L30.5,16 C27.4669892,16.0109694 25.0109694,18.4669892 25,21.5 L25,24.5 C25.0109694,27.5330108 27.4669892,29.9890306 30.5,30 L33.5,30 C36.5330108,29.9890306 38.9890306,27.5330108 39,24.5 L39,21.5 C38.9890306,18.4669892 36.5330108,16.0109694 33.5,16 Z M32,25 C30.8954305,25 30,24.1045695 30,23 C30,21.8954305 30.8954305,21 32,21 C33.1045695,21 34,21.8954305 34,23 C34,24.1045695 33.1045695,25 32,25 Z" id="Shape" fill="#F67F70"></path>
            <path d="M25,48 L39,48 C41.209139,48 43,46.209139 43,44 L43,29 C43,28.4477153 42.5522847,28 42,28 C41.4477153,28 41,28.4477153 41,29 L41,44 C41,45.1045695 40.1045695,46 39,46 L25,46 C23.8954305,46 23,45.1045695 23,44 L23,29 C23,28.4477153 22.5522847,28 22,28 C21.4477153,28 21,28.4477153 21,29 L21,44 C21,46.209139 22.790861,48 25,48 Z" id="Path" fill="#4289FA"></path>
            <path d="M27.76,37.24 C28.1500375,37.6277236 28.7799625,37.6277236 29.17,37.24 L31,35.41 L31,43 C31,43.5522847 31.4477153,44 32,44 C32.5522847,44 33,43.5522847 33,43 L33,35.41 L34.83,37.24 C35.2267603,37.5797768 35.8181942,37.5569323 36.1875632,37.1875632 C36.5569323,36.8181942 36.5797768,36.2267603 36.24,35.83 L32.71,32.29 C32.5222334,32.1006873 32.2666375,31.9942017 32,31.9942017 C31.7333625,31.9942017 31.4777666,32.1006873 31.29,32.29 L27.76,35.83 C27.3722764,36.2200375 27.3722764,36.8499625 27.76,37.24 L27.76,37.24 Z" id="Path" fill="#324176"></path>
        </g>
    </g>
</svg>